<svg xmlns="http://www.w3.org/2000/svg" viewBox="0 0 100 25.06" fill="currentColor"
     class="shape shape-inline shape-logo-forbes">
    <title>Forbes</title>
    <path d="M60.92,7.13a8.21,8.21,0,0,0-4.14,1c0-3.68,0-7,.12-8.16L49.2,1.38v.69l.8.11c1,.23,1.38.81,1.61,2.19.23,2.76.11,17.47,0,19.88a29.87,29.87,0,0,0,6.43.81c6.1,0,9.77-3.8,9.77-9.77,0-4.72-3-8.16-6.89-8.16ZM58.27,23.79a5.28,5.28,0,0,1-1.37-.11c-.12-1.61-.23-8.39-.12-14.37A5.11,5.11,0,0,1,58.5,9c2.53,0,3.91,3,3.91,6.67,0,4.6-1.72,8.16-4.14,8.16ZM20.23.46H0v1l1.15.12c1.49.23,2.07,1.15,2.3,3.33a134.57,134.57,0,0,1,0,15.17c-.23,2.19-.81,3.22-2.3,3.33L0,23.68v.91H13v-.91l-1.38-.24c-1.5-.11-2.07-1.14-2.3-3.33-.12-1.49-.23-3.91-.23-6.89l2.76.11c1.72,0,2.53,1.38,2.87,3.33h1V8.51h-1c-.34,2-1.15,3.33-2.87,3.33L9.08,12c0-3.9.12-7.58.23-9.77h4c3.11,0,4.72,2,5.87,5.41l1.15-.35L20.23.46Z"></path>
    <path d="M26.78,6.9c5.75,0,8.62,3.9,8.62,9.08,0,4.94-3.22,9.08-9,9.08S17.82,21.15,17.82,16c0-5,3.21-9.08,9-9.08Zm-.34,1.15c-2.53,0-3.22,3.44-3.22,7.93s1.15,7.93,3.45,7.93C29.31,23.91,30,20.46,30,16S28.85,8.05,26.44,8.05Zm42.87,8c0-4.71,3-9.19,8.85-9.19,4.82,0,7.12,3.56,7.12,8.27H74.59c-.11,4.25,2,7.36,6.1,7.36a5.9,5.9,0,0,0,3.91-1.27l.45.58a8.89,8.89,0,0,1-15.74-5.75Zm5.28-2.18L80,13.79c0-2.3-.35-5.74-2.3-5.74S74.71,11.26,74.59,13.91ZM99,7.82a13.92,13.92,0,0,0-5.28-.92c-4.25,0-6.9,2.52-6.9,5.51s2,4.26,4.71,5.18,3.68,1.83,3.68,3.21a2.66,2.66,0,0,1-2.87,2.65c-2.19,0-3.8-1.27-5.06-4.72l-.8.23L86.55,24a18,18,0,0,0,6.09,1c4.49,0,7.36-2.3,7.36-5.87,0-2.41-1.27-3.79-4.25-4.94-3.22-1.26-4.37-2.07-4.37-3.56a2.39,2.39,0,0,1,2.41-2.53c2.07,0,3.45,1.26,4.49,4.37l.8-.23L99,7.82ZM50.34,7.36c-2-1.15-5.4-.58-7.24,3.56l.12-4-7.7,1.49v.69l.8.11c1,.12,1.5.69,1.61,2.19a95.24,95.24,0,0,1,0,10c-.11,1.38-.57,2.07-1.61,2.18l-.8.12v.92H46.21v-.92l-1.38-.12c-1.15-.11-1.5-.8-1.61-2.18a83.09,83.09,0,0,1-.12-9.31c.58-.81,3.11-1.5,5.4,0l1.84-4.71Z"></path>
</svg>
