<svg xmlns="http://www.w3.org/2000/svg" xml:space="preserve" width="136mm" height="22mm" version="1.1"
     style="shape-rendering:geometricPrecision; text-rendering:geometricPrecision; image-rendering:optimizeQuality; fill-rule:evenodd; clip-rule:evenodd"
     viewBox="0 0 13600 2200"
>
 <defs>
  <style type="text/css">
   <![CDATA[
    .fil0 {fill:white;fill-rule:nonzero}
   ]]>
  </style>
 </defs>
    <g id="Vrstva_x0020_1">
  <metadata id="CorelCorpID_0Corel-Layer"/>
        <path class="fil0"
              d="M158.78 2019.7l0 -157.11 97.92 0c32.6,0 63.98,-7.74 94.04,-23.23 30.06,-15.49 45.03,-54.92 45.03,-118.5l0 -1239.17c0,-43 -8.15,-74.28 -24.45,-94.04 -16.3,-19.77 -35.25,-33.12 -56.65,-39.94 -21.5,-6.83 -40.86,-10.3 -57.97,-10.3l-97.92 0 0 -157.11 930.04 0c192.37,0 345.2,20.18 458.6,60.52 113.3,40.35 194.51,97 243.42,170.06 48.9,72.95 73.46,158.43 73.46,256.25 0,97.91 -16.81,178.61 -50.23,242.19 -33.52,63.58 -77.74,113.4 -132.76,149.47 -54.92,36.07 -115.85,63.47 -182.89,82.43l293.74 497.21c46.36,78.97 86.3,136.13 119.72,171.28 33.52,35.25 71.73,52.88 114.73,52.88l18.03 0 0 157.11 -121.14 0c-149.37,0 -275.61,-14.57 -378.73,-43.81 -103.01,-29.14 -178.61,-91.9 -226.7,-188.09l-270.51 -556.41 -136.53 0 0 489.47c0,63.58 11.61,103.01 34.84,118.5 23.13,15.49 53.6,23.23 91.4,23.23l61.84 0 0 157.11 -940.33 0zm752.25 -958.36l115.95 0c99.64,0 172.6,-30.06 218.95,-90.18 46.36,-60.11 69.59,-151.1 69.59,-273.06 0,-123.69 -24.86,-212.13 -74.68,-265.42 -49.82,-53.19 -122.88,-79.78 -219.06,-79.78l-110.75 0 0 708.44zm1202.69 958.36l0 -157.11 131.44 0c34.34,0 60.52,-12.02 78.56,-36.07 18.03,-24.05 27,-54.1 27,-90.17l0 -1259.86c0,-60.11 -11.62,-98.32 -34.75,-114.62 -23.23,-16.3 -48.5,-24.46 -76.01,-24.46l-126.24 0 0 -157.11 1527.72 0 7.75 492.02 -213.87 0 -12.83 -128.78c-6.93,-68.78 -22.32,-116.87 -46.36,-144.28 -24.05,-27.51 -66.13,-41.26 -126.24,-41.26l-386.47 0 0 613.16 607.97 0 0 175.15 -607.97 0 0 695.6 461.15 0c54.92,0 96.59,-16.71 124.92,-50.24 28.32,-33.41 46.86,-78.55 55.42,-135.2l20.58 -128.79 211.32 0 -18.03 492.02 -1605.06 0zm2431.48 25.78c-139.08,0 -252.48,-12.02 -340.11,-36.07 -87.52,-24.04 -155.38,-55.02 -203.47,-92.72 -48.09,-37.8 -81.2,-77.33 -99.24,-118.6 -18.03,-41.16 -27,-78.04 -27,-110.75 0,-77.23 16.71,-136.53 50.23,-177.69 33.52,-41.27 76.01,-70 127.57,-86.3 51.45,-16.41 106.47,-24.56 164.85,-24.56 0,116.87 19.26,209.59 57.98,278.26 38.61,68.67 87.52,118.09 146.82,148.15 59.2,30.05 118.9,45.03 179.02,45.03 89.36,0 158.84,-25.67 208.67,-77.23 49.82,-51.56 74.78,-107.39 74.78,-167.51 0,-82.42 -40.85,-148.96 -122.36,-199.6 -81.62,-50.64 -191.96,-104.33 -331.14,-161.08 -130.52,-53.19 -231.8,-109.84 -303.94,-169.95 -72.14,-60.12 -122.77,-124.51 -152.02,-193.29 -29.24,-68.67 -43.81,-140.81 -43.81,-216.41 0,-109.83 30.47,-204.39 91.5,-283.35 60.93,-78.97 143.76,-140 248.61,-182.89 104.74,-43 222.42,-64.4 352.94,-64.4 139.08,0 252.48,16.31 340,48.91 87.63,32.61 152.43,73.87 194.51,123.69 42.08,49.83 63.17,100.47 63.17,152.02 0,65.21 -27.92,119.72 -83.75,163.53 -55.84,43.82 -152.43,65.72 -289.77,65.72 0,-56.65 -11.21,-114.22 -33.53,-172.6 -22.31,-58.38 -55.02,-106.88 -97.91,-145.6 -42.9,-38.61 -94.45,-57.97 -154.57,-57.97 -63.58,0 -117.27,15.49 -160.98,46.36 -43.81,30.97 -65.72,80.8 -65.72,149.47 0,34.34 11.11,69.59 33.52,105.66 22.32,36.07 66.54,75.09 132.66,117.17 66.13,42.08 162.72,88.85 289.77,140.4 130.52,51.56 232.31,106.88 305.36,166.18 72.96,59.3 124,122.78 153.25,190.64 29.24,67.86 43.81,142.95 43.81,225.48 0,111.57 -30.47,210.4 -91.5,296.19 -60.93,85.89 -147.64,153.34 -260.22,202.25 -112.49,49.01 -245.15,73.46 -397.98,73.46zm1169.17 -25.78l0 -157.11 82.43 0c49.83,0 88.85,-9.48 117.17,-28.43 28.43,-18.85 42.59,-64.39 42.59,-136.53l0 -1339.63 -175.25 0c-77.23,0 -130.51,12.94 -159.66,38.61 -29.24,25.78 -47.27,67.04 -54.1,123.7l-23.23 195.83 -200.92 0 12.83 -535.84 1718.36 0 12.94 535.84 -200.92 0 -20.69 -195.83c-6.82,-56.66 -24.86,-97.92 -54.1,-123.7 -29.14,-25.67 -82.43,-38.61 -159.66,-38.61l-175.25 0 0 1350.02c0,68.68 14.67,111.57 43.81,128.79 29.24,17.12 67.86,25.78 115.95,25.78l82.43 0 0 157.11 -1004.73 0zm1256.7 0l0 -157.11 18.04 0c44.62,0 84.56,-11.21 119.82,-33.52 35.15,-22.32 66.53,-70.41 94.04,-144.28l548.67 -1504.49 466.35 0 525.54 1509.69c22.31,60.11 51.15,103.82 86.3,131.33 35.25,27.51 76.82,41.27 124.92,41.27l28.42 0 0 157.11 -953.27 0 0 -157.11 103.11 0c27.41,0 52.37,-5.2 74.69,-15.49 22.31,-10.29 33.52,-31.79 33.52,-64.39 0,-24.05 -3.87,-48.5 -11.62,-73.46 -7.74,-24.86 -13.34,-42.49 -16.81,-52.78l-79.78 -234.45 -587.39 0 -59.3 185.44c-5.19,20.68 -12.43,48.6 -21.9,83.75 -9.48,35.26 -14.17,64.91 -14.17,88.85 0,25.78 6.83,45.95 20.59,60.62 13.75,14.57 38.71,21.91 74.78,21.91l126.24 0 0 157.11 -700.79 0zm631.2 -775.47l473.99 0 -146.82 -492.03c-12.02,-44.62 -25.37,-92.31 -39.94,-143.05 -14.57,-50.64 -27,-104.33 -37.4,-160.98 -13.65,55.02 -28.32,108.2 -43.71,159.76 -15.48,51.56 -30.05,98.73 -43.81,141.63l-162.31 494.67zm1449.98 775.47l0 -157.11 97.92 0c32.6,0 63.99,-7.74 94.04,-23.23 30.06,-15.49 45.04,-54.92 45.04,-118.5l0 -1239.17c0,-43 -8.15,-74.28 -24.46,-94.04 -16.3,-19.77 -35.25,-33.12 -56.65,-39.94 -21.49,-6.83 -40.85,-10.3 -57.97,-10.3l-97.92 0 0 -157.11 930.05 0c192.36,0 345.2,20.18 458.6,60.52 113.3,40.35 194.5,97 243.41,170.06 48.91,72.95 73.46,158.43 73.46,256.25 0,97.91 -16.81,178.61 -50.23,242.19 -33.52,63.58 -77.74,113.4 -132.76,149.47 -54.92,36.07 -115.85,63.47 -182.89,82.43l293.74 497.21c46.36,78.97 86.3,136.13 119.72,171.28 33.53,35.25 71.73,52.88 114.73,52.88l18.04 0 0 157.11 -121.15 0c-149.37,0 -275.61,-14.57 -378.72,-43.81 -103.01,-29.14 -178.61,-91.9 -226.7,-188.09l-270.52 -556.41 -136.53 0 0 489.47c0,63.58 11.62,103.01 34.85,118.5 23.12,15.49 53.59,23.23 91.39,23.23l61.85 0 0 157.11 -940.34 0zm752.25 -958.36l115.95 0c99.65,0 172.6,-30.06 218.96,-90.18 46.36,-60.11 69.59,-151.1 69.59,-273.06 0,-123.69 -24.86,-212.13 -74.69,-265.42 -49.82,-53.19 -122.87,-79.78 -219.06,-79.78l-110.75 0 0 708.44zm1475.76 958.36l0 -157.11 82.43 0c49.82,0 88.84,-9.48 117.17,-28.43 28.43,-18.85 42.59,-64.39 42.59,-136.53l0 -1339.63 -175.25 0c-77.23,0 -130.52,12.94 -159.66,38.61 -29.24,25.78 -47.28,67.04 -54.1,123.7l-23.23 195.83 -200.93 0 12.84 -535.84 1718.36 0 12.94 535.84 -200.93 0 -20.68 -195.83c-6.83,-56.66 -24.86,-97.92 -54.11,-123.7 -29.14,-25.67 -82.42,-38.61 -159.66,-38.61l-175.24 0 0 1350.02c0,68.68 14.67,111.57 43.81,128.79 29.24,17.12 67.86,25.78 115.95,25.78l82.42 0 0 157.11 -1004.72 0zm1771.95 -613.17l-170.05 -1226.23 559.06 0 -170.05 1226.23 -218.96 0zm110.75 636.4c-66.94,0 -123.69,-17.22 -170.05,-51.55 -46.36,-34.34 -69.49,-96.19 -69.49,-185.54 0,-90.99 23.13,-153.24 69.49,-186.77 46.36,-33.52 103.11,-50.23 170.05,-50.23 65.31,0 121.96,16.71 170.05,50.23 48.1,33.53 72.14,95.78 72.14,186.77 0,89.35 -24.04,151.2 -72.14,185.54 -48.09,34.33 -104.74,51.55 -170.05,51.55z"/>
 </g>
</svg>
