<svg xmlns="http://www.w3.org/2000/svg" xml:space="preserve" width="208.306mm" height="25.26mm" version="1.1" style="shape-rendering:geometricPrecision; text-rendering:geometricPrecision; image-rendering:optimizeQuality; fill-rule:evenodd; clip-rule:evenodd"
viewBox="0 0 20830.6 2526"
 xmlns:xlink="http://www.w3.org/1999/xlink">
 <defs>
  <style type="text/css">
   <![CDATA[
    .fil0 {fill:#ffffff;fill-rule:nonzero}
   ]]>
  </style>
 </defs>
 <g id="Vrstva_x0020_1">
  <metadata id="CorelCorpID_0Corel-Layer"/>
  <g id="_2946897968080">
   <path class="fil0" d="M-0.01 2000.61l0 -113.26 78.41 0c29.04,0 54.81,-7.26 77.32,-21.78 22.5,-14.52 33.76,-50.82 33.76,-108.9l0 -1065.03c0,-58.08 -11.62,-94.74 -34.85,-109.99 -23.23,-15.25 -48.64,-22.87 -76.23,-22.87l-78.41 0 0 -113.26 657.76 0c197.47,0 340.86,34.49 430.16,103.46 89.3,68.97 133.95,169.52 133.95,301.66 0,78.4 -13.43,145.19 -40.3,200.36 -26.86,55.18 -62.07,99.47 -105.63,132.86 -43.56,33.4 -88.57,59.54 -135.04,78.41l243.94 446.49c33.4,62.43 65.71,107.81 96.92,136.12 31.22,28.32 65.71,42.47 103.46,42.47l8.71 0 0 113.26 -69.7 0c-78.4,0 -145.2,-5.08 -200.37,-15.25 -55.18,-10.16 -101.64,-29.04 -139.4,-56.62 -37.75,-27.59 -69.69,-68.98 -95.83,-124.15l-241.76 -479.16 -132.86 0 0 431.24c0,58.08 10.53,94.38 31.58,108.9 21.06,14.52 46.83,21.78 77.32,21.78l71.88 0 0 113.26 -694.79 0zm514.01 -799.32l108.9 0c92.93,0 158.27,-27.23 196.02,-81.68 37.76,-54.45 56.63,-135.4 56.63,-242.84 0,-107.45 -19.6,-185.13 -58.8,-233.05 -39.21,-47.91 -103.82,-71.87 -193.85,-71.87l-108.9 0 0 629.44zm1653.99 821.1c-153.91,0 -282.05,-33.4 -384.42,-100.19 -102.37,-66.79 -178.96,-160.45 -229.78,-280.96 -50.82,-120.51 -76.23,-261.36 -76.23,-422.53 0,-161.17 25.41,-301.28 76.23,-420.35 50.82,-119.06 127.41,-211.63 229.78,-277.69 102.37,-66.07 231.23,-99.1 386.6,-99.1 146.65,0 271.16,33.03 373.53,99.1 102.37,66.06 180.05,158.99 233.05,278.78 53,119.79 79.5,260.27 79.5,421.44 0,161.17 -26.5,301.65 -79.5,421.44 -53,119.79 -130.68,213.08 -233.05,279.87 -102.37,66.79 -227.6,100.19 -375.71,100.19zm0 -139.39c126.33,0 215.26,-58.08 266.81,-174.24 51.55,-116.17 77.32,-278.78 77.32,-487.87 0,-209.09 -25.77,-371.34 -77.32,-486.78 -51.55,-115.43 -139.76,-173.15 -264.63,-173.15 -124.87,0 -213.81,57.72 -266.81,173.15 -53,115.44 -79.5,277.69 -79.5,486.78 0,209.09 26.14,371.7 78.41,487.87 52.28,116.16 140.85,174.24 265.72,174.24zm776.24 117.61l0 -113.26 23.96 0c36.3,0 66.79,-10.16 91.48,-30.49 24.68,-20.33 47.91,-63.16 69.69,-128.5l442.14 -1282.84 280.97 0 429.07 1298.08c18.87,55.18 40.65,92.93 65.34,113.26 24.68,20.33 54.45,30.49 89.3,30.49l32.67 0 0 113.26 -675.19 0 0 -113.26 76.23 0c23.23,0 44.29,-6.53 63.16,-19.6 18.88,-13.07 28.32,-33.4 28.32,-60.98 0,-17.43 -2.54,-35.58 -7.63,-54.45 -5.08,-18.88 -9.8,-34.85 -14.15,-47.92l-69.7 -217.79 -490.05 0 -58.81 187.3c-4.36,17.42 -9.44,38.48 -15.25,63.16 -5.8,24.68 -8.71,46.46 -8.71,65.34 0,27.59 8.71,48.64 26.14,63.16 17.42,14.52 39.93,21.78 67.52,21.78l82.76 0 0 113.26 -529.26 0zm479.17 -642.51l407.29 0 -111.08 -378.97c-14.52,-50.81 -29.77,-104.17 -45.74,-160.08 -15.97,-55.9 -29.04,-108.53 -39.21,-157.9 -11.61,45.01 -25.41,95.1 -41.38,150.28 -15.97,55.18 -31.94,106.72 -47.91,154.63l-121.97 392.04zm1113.84 642.51l0 -113.26 82.76 0c30.5,0 55.91,-8.71 76.23,-26.13 20.33,-17.43 30.5,-55.18 30.5,-113.26l0 -1056.32c0,-55.18 -10.53,-91.11 -31.59,-107.81 -21.05,-16.7 -46.82,-25.05 -77.31,-25.05l-80.59 0 0 -113.26 673.01 0c225.06,0 401.12,63.53 528.17,190.58 127.05,127.05 190.57,313.99 190.57,560.83 0,158.27 -27.22,298.03 -81.67,419.26 -54.45,121.24 -134.68,215.62 -240.67,283.14 -106,67.52 -238.13,101.28 -396.4,101.28l-673.01 0zm514.01 -132.86l111.08 0c137.94,0 242.49,-59.53 313.64,-178.6 71.14,-119.05 106.72,-283.13 106.72,-492.22 0,-209.09 -35.58,-364.81 -106.72,-467.17 -71.15,-102.37 -174.97,-153.56 -311.46,-153.56l-113.26 0 0 1291.55zm1264.12 132.86l0 -113.26 76.23 0c33.4,0 61.35,-7.98 83.86,-23.96 22.5,-15.97 33.75,-55.17 33.75,-117.61l0 -1169.58 -161.17 0c-60.98,0 -103.09,14.16 -126.32,42.48 -23.24,28.31 -37.76,66.43 -43.56,114.34l-13.07 130.68 -137.22 0 10.89 -418.18 1269.79 0 8.71 418.18 -137.22 0 -13.06 -130.68c-5.81,-47.91 -20.33,-86.03 -43.56,-114.34 -23.24,-28.32 -65.34,-42.48 -126.33,-42.48l-161.17 0 0 1169.58c0,62.44 11.25,101.64 33.76,117.61 22.5,15.98 50.45,23.96 83.85,23.96l76.23 0 0 113.26 -714.39 0zm1089.88 0l0 -113.26 78.41 0c29.04,0 54.81,-7.26 77.32,-21.78 22.5,-14.52 33.76,-50.82 33.76,-108.9l0 -1065.03c0,-58.08 -11.62,-94.74 -34.85,-109.99 -23.23,-15.25 -48.64,-22.87 -76.23,-22.87l-78.41 0 0 -113.26 657.76 0c197.47,0 340.86,34.49 430.16,103.46 89.3,68.97 133.95,169.52 133.95,301.66 0,78.4 -13.43,145.19 -40.3,200.36 -26.86,55.18 -62.07,99.47 -105.63,132.86 -43.56,33.4 -88.57,59.54 -135.04,78.41l243.94 446.49c33.4,62.43 65.71,107.81 96.92,136.12 31.22,28.32 65.71,42.47 103.46,42.47l8.71 0 0 113.26 -69.7 0c-78.4,0 -145.2,-5.08 -200.37,-15.25 -55.18,-10.16 -101.64,-29.04 -139.4,-56.62 -37.75,-27.59 -69.69,-68.98 -95.83,-124.15l-241.76 -479.16 -132.86 0 0 431.24c0,58.08 10.53,94.38 31.58,108.9 21.06,14.52 46.83,21.78 77.32,21.78l71.88 0 0 113.26 -694.79 0zm514.01 -799.32l108.9 0c92.93,0 158.27,-27.23 196.02,-81.68 37.76,-54.45 56.63,-135.4 56.63,-242.84 0,-107.45 -19.6,-185.13 -58.8,-233.05 -39.21,-47.91 -103.82,-71.87 -193.85,-71.87l-108.9 0 0 629.44zm941.78 799.32l0 -113.26 82.76 0c29.04,0 54.09,-8.35 75.14,-25.04 21.06,-16.7 31.59,-54.09 31.59,-112.17l0 -1051.97c0,-58.08 -10.53,-95.83 -31.59,-113.25 -21.05,-17.43 -46.1,-26.14 -75.14,-26.14l-82.76 0 0 -113.26 705.68 0 0 113.26 -87.12 0c-29.04,0 -53.73,8.71 -74.06,26.14 -20.32,17.42 -30.49,55.17 -30.49,113.25l0 1051.97c0,58.08 10.17,95.47 30.49,112.17 20.33,16.69 45.02,25.04 74.06,25.04l87.12 0 0 113.26 -705.68 0zm828.52 0l0 -113.26 78.41 0c31.94,0 58.44,-7.98 79.49,-23.96 21.06,-15.97 31.59,-55.17 31.59,-117.61l0 -1054.14c0,-58.08 -10.89,-94.74 -32.67,-109.99 -21.78,-15.25 -47.19,-22.87 -76.23,-22.87l-80.59 0 0 -113.26 629.45 0c191.66,0 333.23,40.66 424.71,121.97 91.48,81.32 137.22,194.57 137.22,339.77 0,88.57 -19.61,170.61 -58.81,246.11 -39.21,75.5 -103.46,136.49 -192.76,182.95 -89.29,46.47 -207.27,69.7 -353.92,69.7l-71.88 0 0 350.65c0,58.08 11.25,94.38 33.76,108.9 22.51,14.52 49.01,21.78 79.5,21.78l115.43 0 0 113.26 -742.7 0zm514.01 -718.74l52.27 0c100.19,0 172.07,-27.95 215.63,-83.85 43.56,-55.9 65.34,-149.92 65.34,-282.04 0,-117.62 -19.24,-204.37 -57.72,-260.28 -38.48,-55.9 -102.73,-83.85 -192.75,-83.85l-82.77 0 0 710.02z"/>
   <path class="fil0" d="M11662.68 2526l286.9 -1369.78c5.75,-25.88 10.43,-48.89 14.02,-69.03 3.6,-20.13 5.39,-33.07 5.39,-38.83 0,-41.7 -13.3,-68.67 -39.9,-80.89 -26.61,-12.22 -60.04,-18.34 -100.31,-18.34l-23.73 0 19.41 -97.06 403.39 0 -51.77 286.89 10.79 0c30.2,-57.52 63.63,-109.65 100.3,-156.39 36.68,-46.73 79.46,-83.76 128.36,-111.08 48.89,-27.33 105.7,-40.99 170.41,-40.99 89.16,0 159.27,33.44 210.32,100.31 51.06,66.86 76.58,163.57 76.58,290.13 0,61.84 -8.62,129.07 -25.88,201.69 -17.26,72.63 -43.15,144.89 -77.66,216.79 -34.51,71.9 -78.02,137.33 -130.51,196.3 -52.49,58.96 -113.25,106.06 -182.28,141.29 -69.03,35.23 -147.4,52.85 -235.13,52.85 -41.7,0 -80.89,-4.31 -117.56,-12.94 -36.68,-8.63 -68.67,-20.85 -96,-36.67 0,0 -1.44,11.14 -4.31,33.43 -2.88,22.29 -7.19,45.66 -12.94,70.11l-30.21 135.89c-1.43,11.51 -4.67,29.84 -9.7,55.01 -5.04,25.17 -7.55,44.22 -7.55,57.16 0,41.71 13.3,68.31 39.91,79.82 26.6,11.5 60.04,17.26 100.3,17.26l43.15 0 -19.42 97.07 -444.37 0zm547.92 -604c53.21,0 101.38,-15.46 144.53,-46.38 43.14,-30.91 81.25,-72.26 114.32,-124.03 33.08,-51.77 61.12,-108.58 84.13,-170.42 23.01,-61.83 40.27,-124.02 51.78,-186.58 11.5,-62.56 17.25,-119.72 17.25,-171.5 0,-40.26 -3.59,-79.45 -10.78,-117.56 -7.19,-38.11 -20.5,-69.03 -39.91,-92.76 -19.41,-23.73 -46.38,-35.59 -80.89,-35.59 -40.27,0 -79.46,15.46 -117.57,46.38 -38.11,30.92 -73.7,70.46 -106.78,118.64 -33.07,48.18 -61.48,99.23 -85.21,153.16 -23.72,53.93 -40.62,103.9 -50.69,149.92l-86.29 403.38c12.95,14.38 34.52,30.2 64.72,47.46 30.2,17.25 63.99,25.88 101.39,25.88zm1270.56 107.86c-126.55,0 -229.38,-37.03 -308.48,-111.09 -79.09,-74.06 -118.64,-186.6 -118.64,-337.6 0,-80.52 13.3,-164.29 39.91,-251.3 26.6,-87 67.23,-168.26 121.88,-243.76 54.65,-75.5 123.32,-136.98 206.01,-184.42 82.69,-47.46 180.12,-71.19 292.29,-71.19 77.66,0 148.49,15.1 212.48,45.3 64,30.2 115.05,78.37 153.16,144.52 38.11,66.15 57.17,152.44 57.17,258.86 0,76.22 -12.95,157.83 -38.83,244.84 -25.89,86.99 -65.44,168.97 -118.65,245.9 -53.21,76.94 -121.16,139.5 -203.85,187.68 -82.69,48.17 -180.84,72.26 -294.45,72.26zm28.04 -122.96c53.21,0 100.31,-15.1 141.3,-45.3 40.98,-30.2 75.86,-70.1 104.62,-119.72 28.76,-49.61 52.85,-104.26 72.26,-163.93 19.42,-59.68 33.44,-119.37 42.07,-179.05 8.63,-59.68 12.94,-114.69 12.94,-165.02 0,-102.11 -17.26,-175.09 -51.77,-218.95 -34.52,-43.86 -82.69,-65.8 -144.53,-65.8 -53.21,0 -100.31,15.1 -141.3,45.3 -40.98,30.21 -76.22,69.75 -105.7,118.65 -29.48,48.89 -53.93,103.18 -73.34,162.86 -19.41,59.69 -33.8,120.09 -43.14,181.21 -9.35,61.12 -14.02,116.84 -14.02,167.17 0,103.54 17.97,176.52 53.92,218.95 35.96,42.42 84.85,63.63 146.69,63.63zm2008.32 122.96c-192.71,0 -342.63,-50.33 -449.77,-151 -107.14,-100.67 -160.71,-243.04 -160.71,-427.11 0,-129.43 21.22,-254.18 63.64,-374.26 42.42,-120.09 103.54,-227.57 183.36,-322.49 79.81,-94.91 175.45,-170.42 286.9,-226.5 111.45,-56.09 235.49,-84.13 372.11,-84.13 130.87,0 231.54,22.29 302,66.87 70.47,44.58 105.7,103.54 105.7,176.89 0,54.65 -22.29,97.43 -66.87,128.35 -44.58,30.92 -101.38,46.38 -170.41,46.38 0,-38.83 -4.68,-81.61 -14.02,-128.35 -9.35,-46.74 -28.77,-86.65 -58.25,-119.73 -29.48,-33.07 -74.42,-49.61 -134.82,-49.61 -76.22,0 -145.61,18.7 -208.17,56.09 -62.55,37.39 -118.28,88.08 -167.18,152.08 -48.89,63.99 -89.88,135.54 -122.95,214.62 -33.08,79.1 -58.25,161.07 -75.51,245.92 -17.25,84.85 -25.88,166.82 -25.88,245.92 0,127.98 31.64,226.49 94.91,295.52 63.28,69.03 158.2,103.54 284.75,103.54 100.67,0 182.64,-20.49 245.92,-61.48 63.27,-40.98 113.61,-85.93 151,-134.82 20.13,15.82 30.2,39.55 30.2,71.19 0,40.26 -16.54,81.97 -49.62,125.11 -33.07,43.14 -84.13,79.1 -153.16,107.86 -69.03,28.76 -156.75,43.14 -263.17,43.14zm297.69 -1684.72c-17.26,-48.89 -40.99,-103.53 -71.19,-163.93 -30.2,-60.4 -57.52,-111.46 -81.97,-153.16l6.47 -28.05 92.76 0c31.64,24.45 64.35,55.01 98.15,91.68 33.8,36.68 63.64,71.55 89.52,104.63 38.83,-33.08 84.13,-67.95 135.9,-104.63 51.77,-36.67 99.95,-67.23 144.53,-91.68l112.18 0 -6.48 28.05c-27.32,27.32 -58.6,58.96 -93.83,94.91 -35.24,35.95 -70.47,73.35 -105.7,112.17 -35.24,38.83 -65.8,75.51 -91.68,110.01l-228.66 0zm877.96 1684.72c-79.09,0 -152.08,-16.54 -218.95,-49.61 -66.87,-33.08 -120.08,-82.33 -159.63,-147.77 -39.55,-65.43 -59.32,-148.48 -59.32,-249.15 0,-79.09 14.38,-162.5 43.14,-250.22 28.77,-87.73 71.19,-169.7 127.28,-245.92 56.08,-76.22 125.83,-138.06 209.24,-185.5 83.41,-47.46 179.05,-71.19 286.9,-71.19 94.92,0 168.26,21.93 220.03,65.79 51.78,43.87 77.66,105.34 77.66,184.43 0,76.22 -27.32,147.41 -81.97,213.56 -54.65,66.15 -129.07,119.36 -223.27,159.63 -94.19,40.27 -202.41,60.4 -324.65,60.4l-75.5 0c-2.88,15.82 -4.31,30.92 -4.31,45.3 0,14.38 0,28.75 0,43.13 0,89.17 19.77,158.56 59.32,208.17 39.55,49.61 98.15,74.42 175.81,74.42 70.46,0 132.66,-16.9 186.59,-50.69 53.93,-33.8 95.99,-70.11 126.19,-108.94 15.82,12.95 23.73,34.52 23.73,64.72 0,33.07 -13.66,67.95 -40.98,104.62 -27.33,36.67 -69.39,68.31 -126.2,94.91 -56.8,26.61 -130.51,39.91 -221.11,39.91zm-161.78 -621.25l21.57 0c80.53,0 152.44,-13.3 215.71,-39.91 63.28,-26.6 113.26,-64.35 149.93,-113.25 36.67,-48.89 55,-105.7 55,-170.41 0,-96.36 -39.54,-144.52 -118.64,-144.52 -38.83,0 -75.5,14.01 -110.01,42.05 -34.52,28.04 -65.8,65.07 -93.84,111.09 -28.04,46.02 -52.13,96.36 -72.27,151.01 -20.13,54.64 -35.95,109.29 -47.45,163.94zm1141.14 621.25c-110.74,0 -199.9,-21.57 -267.49,-64.71 -67.59,-43.15 -101.39,-102.11 -101.39,-176.89 0,-40.27 8.63,-71.55 25.89,-93.84 17.26,-22.29 38.47,-37.75 63.64,-46.38 25.16,-8.62 49.25,-12.94 72.26,-12.94 0,50.34 7.91,97.07 23.73,140.22 15.82,43.14 40.99,78.01 75.5,104.62 34.52,26.6 80.54,39.91 138.06,39.91 67.59,0 121.88,-16.18 162.86,-48.54 40.99,-32.36 61.48,-79.46 61.48,-141.29 0,-50.34 -17.25,-92.76 -51.77,-127.28 -34.51,-34.5 -92.04,-69.73 -172.57,-105.69 -80.53,-38.83 -144.89,-83.41 -193.07,-133.74 -48.17,-50.33 -72.26,-118.64 -72.26,-204.93 0,-96.35 39.19,-174.73 117.56,-235.12 78.38,-60.4 184.44,-90.6 318.18,-90.6 84.85,0 153.16,10.06 204.94,30.2 51.77,20.13 89.52,45.66 113.25,76.58 23.72,30.91 35.59,62.9 35.59,95.98 0,48.9 -16.54,84.85 -49.62,107.86 -33.07,23.01 -78.37,34.51 -135.9,34.51 0,-38.83 -5.75,-76.58 -17.25,-113.25 -11.51,-36.67 -31.28,-67.23 -59.33,-91.68 -28.04,-24.44 -65.07,-36.66 -111.09,-36.66 -61.84,0 -110.73,16.89 -146.69,50.68 -35.95,33.8 -53.93,75.86 -53.93,126.2 0,48.89 18.34,88.8 55.01,119.72 36.67,30.92 93.84,63.64 171.5,98.15 83.41,37.39 147.76,82.33 193.06,134.82 45.3,52.5 67.95,120.44 67.95,203.85 0,107.85 -40.98,194.86 -122.96,261.01 -81.97,66.16 -197.02,99.23 -345.14,99.23zm1719.25 -10.78c-76.22,-1.44 -139.13,-8.63 -188.75,-21.58 -49.61,-12.94 -89.88,-34.87 -120.8,-65.79 -30.92,-30.92 -57.88,-73.7 -80.89,-128.35l-135.9 -334.35 -174.73 112.16 -90.6 427.12 -232.98 0 280.43 -1335.26c5.76,-25.89 10.43,-48.9 14.02,-69.03 3.6,-20.13 5.4,-33.08 5.4,-38.83 0,-41.71 -13.31,-68.67 -39.91,-80.89 -26.61,-12.23 -60.76,-18.34 -102.47,-18.34l-23.72 0 19.41 -97.07 431.43 0 -92.76 433.59c-8.62,43.14 -19.41,93.83 -32.35,152.07 -12.95,58.24 -26.97,118.64 -42.07,181.2 -15.1,62.56 -29.84,122.6 -44.22,180.12 -14.38,57.53 -27.32,106.42 -38.83,146.69l342.99 -299.85c51.77,-46.02 87.37,-81.61 106.78,-106.78 19.41,-25.16 29.12,-46.38 29.12,-63.63 0,-17.26 -7.55,-29.12 -22.65,-35.6 -15.1,-6.47 -39.91,-9.69 -74.42,-9.69l19.41 -94.92 496.15 0 -19.41 94.92c-48.9,0 -101.39,16.89 -157.48,50.68 -56.08,33.8 -119.36,82.33 -189.83,145.61l-189.83 176.89 187.68 405.53c30.2,66.15 62.55,115.41 97.07,147.77 34.51,32.35 76.22,48.53 125.11,48.53l-19.41 97.08 -40.99 0zm1149.77 10.78c-67.59,0 -117.93,-20.13 -151,-60.4 -33.08,-40.27 -49.62,-88.44 -49.62,-144.53 0,-33.08 3.6,-72.62 10.79,-118.64l-17.26 0c-41.7,63.27 -82.33,119.36 -121.88,168.26 -39.55,48.89 -83.41,86.64 -131.59,113.25 -48.17,26.6 -104.62,39.9 -169.33,39.9 -87.73,0 -148.85,-24.08 -183.36,-72.26 -34.52,-48.18 -51.77,-103.9 -51.77,-167.18 0,-35.95 4.31,-75.14 12.94,-117.57 8.63,-42.42 17.26,-82.33 25.89,-119.71l81.97 -377.5c4.31,-23.01 8.63,-48.54 12.94,-76.58 4.32,-28.04 6.47,-46.38 6.47,-55.01 0,-38.83 -13.3,-63.99 -39.91,-75.5 -26.6,-11.5 -60.04,-17.26 -100.3,-17.26l-23.73 0 19.41 -97.06 433.59 0 -142.37 644.98c-8.63,37.39 -17.62,81.26 -26.97,131.58 -9.34,50.33 -14.02,90.6 -14.02,120.8 0,34.52 6.83,63.64 20.5,87.37 13.66,23.72 40.62,35.59 80.89,35.59 35.95,0 73.7,-14.38 113.25,-43.14 39.55,-28.77 77.66,-67.24 114.33,-115.41 36.67,-48.18 68.67,-101.39 95.99,-159.62 27.33,-58.25 47.46,-116.13 60.4,-173.65l114.33 -528.5 239.45 0 -148.85 694.6c-4.31,18.69 -8.98,42.41 -14.02,71.17 -5.03,28.77 -8.99,57.89 -11.86,87.37 -2.88,29.48 -4.32,53.57 -4.32,72.26 0,70.47 23.73,105.7 71.19,105.7 24.45,0 46.38,-3.95 65.79,-11.86 19.42,-7.91 42.79,-19.77 70.11,-35.59l40.99 64.71c-31.64,31.64 -72.27,61.12 -121.88,88.45 -49.62,27.32 -105.34,40.98 -167.18,40.98z"/>
  </g>
 </g>
</svg>
