<?xml version="1.0" encoding="utf-8"?><svg xmlns="http://www.w3.org/2000/svg" xmlns:xlink="http://www.w3.org/1999/xlink"><symbol class="asvg-inline--fa afa-arrow-down afa-w-14" viewBox="0 0 448 512" id="arrow-down-solid" xmlns="http://www.w3.org/2000/svg"><path d="M413.1 222.5l22.2 22.2c9.4 9.4 9.4 24.6 0 33.9L241 473c-9.4 9.4-24.6 9.4-33.9 0L12.7 278.6c-9.4-9.4-9.4-24.6 0-33.9l22.2-22.2c9.5-9.5 25-9.3 34.3.4L184 343.4V56c0-13.3 10.7-24 24-24h32c13.3 0 24 10.7 24 24v287.4l114.8-120.5c9.3-9.8 24.8-10 34.3-.4z"/></symbol><symbol class="bsvg-inline--fa bfa-check bfa-w-16" viewBox="0 0 512 512" id="check-solid" xmlns="http://www.w3.org/2000/svg"><path d="M173.898 439.404l-166.4-166.4c-9.997-9.997-9.997-26.206 0-36.204l36.203-36.204c9.997-9.998 26.207-9.998 36.204 0L192 312.69 432.095 72.596c9.997-9.997 26.207-9.997 36.204 0l36.203 36.204c9.997 9.997 9.997 26.206 0 36.204l-294.4 294.401c-9.998 9.997-26.207 9.997-36.204-.001z"/></symbol><symbol class="csvg-inline--fa cfa-chevron-left cfa-w-10" viewBox="0 0 320 512" id="chevron-left-solid" xmlns="http://www.w3.org/2000/svg"><path d="M34.52 239.03L228.87 44.69c9.37-9.37 24.57-9.37 33.94 0l22.67 22.67c9.36 9.36 9.37 24.52.04 33.9L131.49 256l154.02 154.75c9.34 9.38 9.32 24.54-.04 33.9l-22.67 22.67c-9.37 9.37-24.57 9.37-33.94 0L34.52 272.97c-9.37-9.37-9.37-24.57 0-33.94z"/></symbol><symbol class="dsvg-inline--fa dfa-chevron-right dfa-w-10" viewBox="0 0 320 512" id="chevron-right-solid" xmlns="http://www.w3.org/2000/svg"><path d="M285.476 272.971L91.132 467.314c-9.373 9.373-24.569 9.373-33.941 0l-22.667-22.667c-9.357-9.357-9.375-24.522-.04-33.901L188.505 256 34.484 101.255c-9.335-9.379-9.317-24.544.04-33.901l22.667-22.667c9.373-9.373 24.569-9.373 33.941 0L285.475 239.03c9.373 9.372 9.373 24.568.001 33.941z"/></symbol><symbol class="esvg-inline--fa efa-cog efa-w-16" viewBox="0 0 512 512" id="cog-solid" xmlns="http://www.w3.org/2000/svg"><path d="M487.4 315.7l-42.6-24.6c4.3-23.2 4.3-47 0-70.2l42.6-24.6c4.9-2.8 7.1-8.6 5.5-14-11.1-35.6-30-67.8-54.7-94.6-3.8-4.1-10-5.1-14.8-2.3L380.8 110c-17.9-15.4-38.5-27.3-60.8-35.1V25.8c0-5.6-3.9-10.5-9.4-11.7-36.7-8.2-74.3-7.8-109.2 0-5.5 1.2-9.4 6.1-9.4 11.7V75c-22.2 7.9-42.8 19.8-60.8 35.1L88.7 85.5c-4.9-2.8-11-1.9-14.8 2.3-24.7 26.7-43.6 58.9-54.7 94.6-1.7 5.4.6 11.2 5.5 14L67.3 221c-4.3 23.2-4.3 47 0 70.2l-42.6 24.6c-4.9 2.8-7.1 8.6-5.5 14 11.1 35.6 30 67.8 54.7 94.6 3.8 4.1 10 5.1 14.8 2.3l42.6-24.6c17.9 15.4 38.5 27.3 60.8 35.1v49.2c0 5.6 3.9 10.5 9.4 11.7 36.7 8.2 74.3 7.8 109.2 0 5.5-1.2 9.4-6.1 9.4-11.7v-49.2c22.2-7.9 42.8-19.8 60.8-35.1l42.6 24.6c4.9 2.8 11 1.9 14.8-2.3 24.7-26.7 43.6-58.9 54.7-94.6 1.5-5.5-.7-11.3-5.6-14.1zM256 336c-44.1 0-80-35.9-80-80s35.9-80 80-80 80 35.9 80 80-35.9 80-80 80z"/></symbol><symbol class="fsvg-inline--fa ffa-cogs ffa-w-20" viewBox="0 0 640 512" id="cogs-solid" xmlns="http://www.w3.org/2000/svg"><path d="M512.1 191l-8.2 14.3c-3 5.3-9.4 7.5-15.1 5.4-11.8-4.4-22.6-10.7-32.1-18.6-4.6-3.8-5.8-10.5-2.8-15.7l8.2-14.3c-6.9-8-12.3-17.3-15.9-27.4h-16.5c-6 0-11.2-4.3-12.2-10.3-2-12-2.1-24.6 0-37.1 1-6 6.2-10.4 12.2-10.4h16.5c3.6-10.1 9-19.4 15.9-27.4l-8.2-14.3c-3-5.2-1.9-11.9 2.8-15.7 9.5-7.9 20.4-14.2 32.1-18.6 5.7-2.1 12.1.1 15.1 5.4l8.2 14.3c10.5-1.9 21.2-1.9 31.7 0L552 6.3c3-5.3 9.4-7.5 15.1-5.4 11.8 4.4 22.6 10.7 32.1 18.6 4.6 3.8 5.8 10.5 2.8 15.7l-8.2 14.3c6.9 8 12.3 17.3 15.9 27.4h16.5c6 0 11.2 4.3 12.2 10.3 2 12 2.1 24.6 0 37.1-1 6-6.2 10.4-12.2 10.4h-16.5c-3.6 10.1-9 19.4-15.9 27.4l8.2 14.3c3 5.2 1.9 11.9-2.8 15.7-9.5 7.9-20.4 14.2-32.1 18.6-5.7 2.1-12.1-.1-15.1-5.4l-8.2-14.3c-10.4 1.9-21.2 1.9-31.7 0zm-10.5-58.8c38.5 29.6 82.4-14.3 52.8-52.8-38.5-29.7-82.4 14.3-52.8 52.8zM386.3 286.1l33.7 16.8c10.1 5.8 14.5 18.1 10.5 29.1-8.9 24.2-26.4 46.4-42.6 65.8-7.4 8.9-20.2 11.1-30.3 5.3l-29.1-16.8c-16 13.7-34.6 24.6-54.9 31.7v33.6c0 11.6-8.3 21.6-19.7 23.6-24.6 4.2-50.4 4.4-75.9 0-11.5-2-20-11.9-20-23.6V418c-20.3-7.2-38.9-18-54.9-31.7L74 403c-10 5.8-22.9 3.6-30.3-5.3-16.2-19.4-33.3-41.6-42.2-65.7-4-10.9.4-23.2 10.5-29.1l33.3-16.8c-3.9-20.9-3.9-42.4 0-63.4L12 205.8c-10.1-5.8-14.6-18.1-10.5-29 8.9-24.2 26-46.4 42.2-65.8 7.4-8.9 20.2-11.1 30.3-5.3l29.1 16.8c16-13.7 34.6-24.6 54.9-31.7V57.1c0-11.5 8.2-21.5 19.6-23.5 24.6-4.2 50.5-4.4 76-.1 11.5 2 20 11.9 20 23.6v33.6c20.3 7.2 38.9 18 54.9 31.7l29.1-16.8c10-5.8 22.9-3.6 30.3 5.3 16.2 19.4 33.2 41.6 42.1 65.8 4 10.9.1 23.2-10 29.1l-33.7 16.8c3.9 21 3.9 42.5 0 63.5zm-117.6 21.1c59.2-77-28.7-164.9-105.7-105.7-59.2 77 28.7 164.9 105.7 105.7zm243.4 182.7l-8.2 14.3c-3 5.3-9.4 7.5-15.1 5.4-11.8-4.4-22.6-10.7-32.1-18.6-4.6-3.8-5.8-10.5-2.8-15.7l8.2-14.3c-6.9-8-12.3-17.3-15.9-27.4h-16.5c-6 0-11.2-4.3-12.2-10.3-2-12-2.1-24.6 0-37.1 1-6 6.2-10.4 12.2-10.4h16.5c3.6-10.1 9-19.4 15.9-27.4l-8.2-14.3c-3-5.2-1.9-11.9 2.8-15.7 9.5-7.9 20.4-14.2 32.1-18.6 5.7-2.1 12.1.1 15.1 5.4l8.2 14.3c10.5-1.9 21.2-1.9 31.7 0l8.2-14.3c3-5.3 9.4-7.5 15.1-5.4 11.8 4.4 22.6 10.7 32.1 18.6 4.6 3.8 5.8 10.5 2.8 15.7l-8.2 14.3c6.9 8 12.3 17.3 15.9 27.4h16.5c6 0 11.2 4.3 12.2 10.3 2 12 2.1 24.6 0 37.1-1 6-6.2 10.4-12.2 10.4h-16.5c-3.6 10.1-9 19.4-15.9 27.4l8.2 14.3c3 5.2 1.9 11.9-2.8 15.7-9.5 7.9-20.4 14.2-32.1 18.6-5.7 2.1-12.1-.1-15.1-5.4l-8.2-14.3c-10.4 1.9-21.2 1.9-31.7 0zM501.6 431c38.5 29.6 82.4-14.3 52.8-52.8-38.5-29.6-82.4 14.3-52.8 52.8z"/></symbol><symbol class="gsvg-inline--fa gfa-exclamation-circle gfa-w-16" viewBox="0 0 512 512" id="exclamation-circle-solid" xmlns="http://www.w3.org/2000/svg"><path d="M504 256c0 136.997-111.043 248-248 248S8 392.997 8 256C8 119.083 119.043 8 256 8s248 111.083 248 248zm-248 50c-25.405 0-46 20.595-46 46s20.595 46 46 46 46-20.595 46-46-20.595-46-46-46zm-43.673-165.346l7.418 136c.347 6.364 5.609 11.346 11.982 11.346h48.546c6.373 0 11.635-4.982 11.982-11.346l7.418-136c.375-6.874-5.098-12.654-11.982-12.654h-63.383c-6.884 0-12.356 5.78-11.981 12.654z"/></symbol><symbol class="hsvg-inline--fa hfa-facebook-f hfa-w-10" viewBox="0 0 320 512" id="facebook-f-brands(1)" xmlns="http://www.w3.org/2000/svg"><path d="M279.14 288l14.22-92.66h-88.91v-60.13c0-25.35 12.42-50.06 52.24-50.06h40.42V6.26S260.43 0 225.36 0c-73.22 0-121.08 44.38-121.08 124.72v70.62H22.89V288h81.39v224h100.17V288z"/></symbol><symbol viewBox="0 0 100 25.06" class="ishape ishape-inline ishape-logo-forbes" id="forbes" xmlns="http://www.w3.org/2000/svg"><path d="M60.92 7.13a8.21 8.21 0 00-4.14 1c0-3.68 0-7 .12-8.16l-7.7 1.41v.69l.8.11c1 .23 1.38.81 1.61 2.19.23 2.76.11 17.47 0 19.88a29.87 29.87 0 006.43.81c6.1 0 9.77-3.8 9.77-9.77 0-4.72-3-8.16-6.89-8.16zm-2.65 16.66a5.28 5.28 0 01-1.37-.11c-.12-1.61-.23-8.39-.12-14.37A5.11 5.11 0 0158.5 9c2.53 0 3.91 3 3.91 6.67 0 4.6-1.72 8.16-4.14 8.16zM20.23.46H0v1l1.15.12c1.49.23 2.07 1.15 2.3 3.33a134.57 134.57 0 010 15.17c-.23 2.19-.81 3.22-2.3 3.33L0 23.68v.91h13v-.91l-1.38-.24c-1.5-.11-2.07-1.14-2.3-3.33-.12-1.49-.23-3.91-.23-6.89l2.76.11c1.72 0 2.53 1.38 2.87 3.33h1V8.51h-1c-.34 2-1.15 3.33-2.87 3.33L9.08 12c0-3.9.12-7.58.23-9.77h4c3.11 0 4.72 2 5.87 5.41l1.15-.35-.1-6.83z"/><path d="M26.78 6.9c5.75 0 8.62 3.9 8.62 9.08 0 4.94-3.22 9.08-9 9.08s-8.58-3.91-8.58-9.06c0-5 3.21-9.08 9-9.08zm-.34 1.15c-2.53 0-3.22 3.44-3.22 7.93s1.15 7.93 3.45 7.93c2.64 0 3.33-3.45 3.33-7.91s-1.15-7.95-3.56-7.95zm42.87 8c0-4.71 3-9.19 8.85-9.19 4.82 0 7.12 3.56 7.12 8.27H74.59c-.11 4.25 2 7.36 6.1 7.36a5.9 5.9 0 003.91-1.27l.45.58a8.89 8.89 0 01-15.74-5.75zm5.28-2.18l5.41-.08c0-2.3-.35-5.74-2.3-5.74s-2.99 3.21-3.11 5.86zM99 7.82a13.92 13.92 0 00-5.28-.92c-4.25 0-6.9 2.52-6.9 5.51s2 4.26 4.71 5.18 3.68 1.83 3.68 3.21a2.66 2.66 0 01-2.87 2.65c-2.19 0-3.8-1.27-5.06-4.72l-.8.23.07 5.04a18 18 0 006.09 1c4.49 0 7.36-2.3 7.36-5.87 0-2.41-1.27-3.79-4.25-4.94-3.22-1.26-4.37-2.07-4.37-3.56a2.39 2.39 0 012.41-2.53c2.07 0 3.45 1.26 4.49 4.37l.8-.23L99 7.82zm-48.66-.46c-2-1.15-5.4-.58-7.24 3.56l.12-4-7.7 1.49v.69l.8.11c1 .12 1.5.69 1.61 2.19a95.24 95.24 0 010 10c-.11 1.38-.57 2.07-1.61 2.18l-.8.12v.92h10.69v-.92l-1.38-.12c-1.15-.11-1.5-.8-1.61-2.18a83.09 83.09 0 01-.12-9.31c.58-.81 3.11-1.5 5.4 0l1.84-4.71z"/></symbol><symbol class="jsvg-inline--fa jfa-info jfa-w-6" viewBox="0 0 192 512" id="info-solid" xmlns="http://www.w3.org/2000/svg"><path d="M20 424.229h20V279.771H20c-11.046 0-20-8.954-20-20V212c0-11.046 8.954-20 20-20h112c11.046 0 20 8.954 20 20v212.229h20c11.046 0 20 8.954 20 20V492c0 11.046-8.954 20-20 20H20c-11.046 0-20-8.954-20-20v-47.771c0-11.046 8.954-20 20-20zM96 0C56.235 0 24 32.235 24 72s32.235 72 72 72 72-32.235 72-72S135.764 0 96 0z"/></symbol><symbol class="ksvg-inline--fa kfa-instagram kfa-w-14" viewBox="0 0 448 512" id="instagram-brands(1)" xmlns="http://www.w3.org/2000/svg"><path d="M224.1 141c-63.6 0-114.9 51.3-114.9 114.9s51.3 114.9 114.9 114.9S339 319.5 339 255.9 287.7 141 224.1 141zm0 189.6c-41.1 0-74.7-33.5-74.7-74.7s33.5-74.7 74.7-74.7 74.7 33.5 74.7 74.7-33.6 74.7-74.7 74.7zm146.4-194.3c0 14.9-12 26.8-26.8 26.8-14.9 0-26.8-12-26.8-26.8s12-26.8 26.8-26.8 26.8 12 26.8 26.8zm76.1 27.2c-1.7-35.9-9.9-67.7-36.2-93.9-26.2-26.2-58-34.4-93.9-36.2-37-2.1-147.9-2.1-184.9 0-35.8 1.7-67.6 9.9-93.9 36.1s-34.4 58-36.2 93.9c-2.1 37-2.1 147.9 0 184.9 1.7 35.9 9.9 67.7 36.2 93.9s58 34.4 93.9 36.2c37 2.1 147.9 2.1 184.9 0 35.9-1.7 67.7-9.9 93.9-36.2 26.2-26.2 34.4-58 36.2-93.9 2.1-37 2.1-147.8 0-184.8zM398.8 388c-7.8 19.6-22.9 34.7-42.6 42.6-29.5 11.7-99.5 9-132.1 9s-102.7 2.6-132.1-9c-19.6-7.8-34.7-22.9-42.6-42.6-11.7-29.5-9-99.5-9-132.1s-2.6-102.7 9-132.1c7.8-19.6 22.9-34.7 42.6-42.6 29.5-11.7 99.5-9 132.1-9s102.7-2.6 132.1 9c19.6 7.8 34.7 22.9 42.6 42.6 11.7 29.5 9 99.5 9 132.1s2.7 102.7-9 132.1z"/></symbol><symbol class="lsvg-inline--fa lfa-linkedin-in lfa-w-14" viewBox="0 0 448 512" id="linkedin-in-brands" xmlns="http://www.w3.org/2000/svg"><path d="M100.28 448H7.4V148.9h92.88zM53.79 108.1C24.09 108.1 0 83.5 0 53.8a53.79 53.79 0 01107.58 0c0 29.7-24.1 54.3-53.79 54.3zM447.9 448h-92.68V302.4c0-34.7-.7-79.2-48.29-79.2-48.29 0-55.69 37.7-55.69 76.7V448h-92.78V148.9h89.08v40.8h1.3c12.4-23.5 42.69-48.3 87.88-48.3 94 0 111.28 61.9 111.28 142.3V448z"/></symbol><symbol class="msvg-inline--fa mfa-list mfa-w-16" viewBox="0 0 512 512" id="list-solid" xmlns="http://www.w3.org/2000/svg"><path d="M80 368H16a16 16 0 00-16 16v64a16 16 0 0016 16h64a16 16 0 0016-16v-64a16 16 0 00-16-16zm0-320H16A16 16 0 000 64v64a16 16 0 0016 16h64a16 16 0 0016-16V64a16 16 0 00-16-16zm0 160H16a16 16 0 00-16 16v64a16 16 0 0016 16h64a16 16 0 0016-16v-64a16 16 0 00-16-16zm416 176H176a16 16 0 00-16 16v32a16 16 0 0016 16h320a16 16 0 0016-16v-32a16 16 0 00-16-16zm0-320H176a16 16 0 00-16 16v32a16 16 0 0016 16h320a16 16 0 0016-16V80a16 16 0 00-16-16zm0 160H176a16 16 0 00-16 16v32a16 16 0 0016 16h320a16 16 0 0016-16v-32a16 16 0 00-16-16z"/></symbol><symbol class="nsvg-inline--fa nfa-pen-nib nfa-w-16" viewBox="0 0 512 512" id="pen-nib-solid" xmlns="http://www.w3.org/2000/svg"><path d="M136.6 138.79a64.003 64.003 0 00-43.31 41.35L0 460l14.69 14.69L164.8 324.58c-2.99-6.26-4.8-13.18-4.8-20.58 0-26.51 21.49-48 48-48s48 21.49 48 48-21.49 48-48 48c-7.4 0-14.32-1.81-20.58-4.8L37.31 497.31 52 512l279.86-93.29a64.003 64.003 0 0041.35-43.31L416 224 288 96l-151.4 42.79zm361.34-64.62l-60.11-60.11c-18.75-18.75-49.16-18.75-67.91 0l-56.55 56.55 128.02 128.02 56.55-56.55c18.75-18.75 18.75-49.15 0-67.91z"/></symbol><symbol class="osvg-inline--fa ofa-plus ofa-w-14" viewBox="0 0 448 512" id="plus-solid" xmlns="http://www.w3.org/2000/svg"><path d="M416 208H272V64c0-17.67-14.33-32-32-32h-32c-17.67 0-32 14.33-32 32v144H32c-17.67 0-32 14.33-32 32v32c0 17.67 14.33 32 32 32h144v144c0 17.67 14.33 32 32 32h32c17.67 0 32-14.33 32-32V304h144c17.67 0 32-14.33 32-32v-32c0-17.67-14.33-32-32-32z"/></symbol><symbol class="psvg-inline--fa pfa-podcast pfa-w-14" viewBox="0 0 448 512" id="podcast-solid" xmlns="http://www.w3.org/2000/svg"><path d="M267.429 488.563C262.286 507.573 242.858 512 224 512c-18.857 0-38.286-4.427-43.428-23.437C172.927 460.134 160 388.898 160 355.75c0-35.156 31.142-43.75 64-43.75s64 8.594 64 43.75c0 32.949-12.871 104.179-20.571 132.813zM156.867 288.554c-18.693-18.308-29.958-44.173-28.784-72.599 2.054-49.724 42.395-89.956 92.124-91.881C274.862 121.958 320 165.807 320 220c0 26.827-11.064 51.116-28.866 68.552-2.675 2.62-2.401 6.986.628 9.187 9.312 6.765 16.46 15.343 21.234 25.363 1.741 3.654 6.497 4.66 9.449 1.891 28.826-27.043 46.553-65.783 45.511-108.565-1.855-76.206-63.595-138.208-139.793-140.369C146.869 73.753 80 139.215 80 220c0 41.361 17.532 78.7 45.55 104.989 2.953 2.771 7.711 1.77 9.453-1.887 4.774-10.021 11.923-18.598 21.235-25.363 3.029-2.2 3.304-6.566.629-9.185zM224 0C100.204 0 0 100.185 0 224c0 89.992 52.602 165.647 125.739 201.408 4.333 2.118 9.267-1.544 8.535-6.31-2.382-15.512-4.342-30.946-5.406-44.339-.146-1.836-1.149-3.486-2.678-4.512-47.4-31.806-78.564-86.016-78.187-147.347.592-96.237 79.29-174.648 175.529-174.899C320.793 47.747 400 126.797 400 224c0 61.932-32.158 116.49-80.65 147.867-.999 14.037-3.069 30.588-5.624 47.23-.732 4.767 4.203 8.429 8.535 6.31C395.227 389.727 448 314.187 448 224 448 100.205 347.815 0 224 0zm0 160c-35.346 0-64 28.654-64 64s28.654 64 64 64 64-28.654 64-64-28.654-64-64-64z"/></symbol><symbol viewBox="0 0 13600 2200" shape-rendering="geometricPrecision" text-rendering="geometricPrecision" image-rendering="optimizeQuality" fill-rule="evenodd" clip-rule="evenodd" id="restart" xmlns="http://www.w3.org/2000/svg"><path d="M158.78 2019.7v-157.11h97.92c32.6 0 63.98-7.74 94.04-23.23 30.06-15.49 45.03-54.92 45.03-118.5V481.69c0-43-8.15-74.28-24.45-94.04-16.3-19.77-35.25-33.12-56.65-39.94-21.5-6.83-40.86-10.3-57.97-10.3h-97.92V180.3h930.04c192.37 0 345.2 20.18 458.6 60.52 113.3 40.35 194.51 97 243.42 170.06 48.9 72.95 73.46 158.43 73.46 256.25 0 97.91-16.81 178.61-50.23 242.19-33.52 63.58-77.74 113.4-132.76 149.47-54.92 36.07-115.85 63.47-182.89 82.43l293.74 497.21c46.36 78.97 86.3 136.13 119.72 171.28 33.52 35.25 71.73 52.88 114.73 52.88h18.03v157.11H1923.5c-149.37 0-275.61-14.57-378.73-43.81-103.01-29.14-178.61-91.9-226.7-188.09l-270.51-556.41H911.03v489.47c0 63.58 11.61 103.01 34.84 118.5 23.13 15.49 53.6 23.23 91.4 23.23h61.84v157.11H158.78zm752.25-958.36h115.95c99.64 0 172.6-30.06 218.95-90.18 46.36-60.11 69.59-151.1 69.59-273.06 0-123.69-24.86-212.13-74.68-265.42-49.82-53.19-122.88-79.78-219.06-79.78H911.03v708.44zm1202.69 958.36v-157.11h131.44c34.34 0 60.52-12.02 78.56-36.07 18.03-24.05 27-54.1 27-90.17V476.49c0-60.11-11.62-98.32-34.75-114.62-23.23-16.3-48.5-24.46-76.01-24.46h-126.24V180.3h1527.72l7.75 492.02h-213.87l-12.83-128.78c-6.93-68.78-22.32-116.87-46.36-144.28C3352.08 371.75 3310 358 3249.89 358h-386.47v613.16h607.97v175.15h-607.97v695.6h461.15c54.92 0 96.59-16.71 124.92-50.24 28.32-33.41 46.86-78.55 55.42-135.2l20.58-128.79h211.32l-18.03 492.02H2113.72zm2431.48 25.78c-139.08 0-252.48-12.02-340.11-36.07-87.52-24.04-155.38-55.02-203.47-92.72-48.09-37.8-81.2-77.33-99.24-118.6-18.03-41.16-27-78.04-27-110.75 0-77.23 16.71-136.53 50.23-177.69 33.52-41.27 76.01-70 127.57-86.3 51.45-16.41 106.47-24.56 164.85-24.56 0 116.87 19.26 209.59 57.98 278.26 38.61 68.67 87.52 118.09 146.82 148.15 59.2 30.05 118.9 45.03 179.02 45.03 89.36 0 158.84-25.67 208.67-77.23 49.82-51.56 74.78-107.39 74.78-167.51 0-82.42-40.85-148.96-122.36-199.6-81.62-50.64-191.96-104.33-331.14-161.08-130.52-53.19-231.8-109.84-303.94-169.95-72.14-60.12-122.77-124.51-152.02-193.29-29.24-68.67-43.81-140.81-43.81-216.41 0-109.83 30.47-204.39 91.5-283.35 60.93-78.97 143.76-140 248.61-182.89 104.74-43 222.42-64.4 352.94-64.4 139.08 0 252.48 16.31 340 48.91 87.63 32.61 152.43 73.87 194.51 123.69 42.08 49.83 63.17 100.47 63.17 152.02 0 65.21-27.92 119.72-83.75 163.53-55.84 43.82-152.43 65.72-289.77 65.72 0-56.65-11.21-114.22-33.53-172.6-22.31-58.38-55.02-106.88-97.91-145.6-42.9-38.61-94.45-57.97-154.57-57.97-63.58 0-117.27 15.49-160.98 46.36-43.81 30.97-65.72 80.8-65.72 149.47 0 34.34 11.11 69.59 33.52 105.66 22.32 36.07 66.54 75.09 132.66 117.17 66.13 42.08 162.72 88.85 289.77 140.4 130.52 51.56 232.31 106.88 305.36 166.18 72.96 59.3 124 122.78 153.25 190.64 29.24 67.86 43.81 142.95 43.81 225.48 0 111.57-30.47 210.4-91.5 296.19-60.93 85.89-147.64 153.34-260.22 202.25-112.49 49.01-245.15 73.46-397.98 73.46zm1169.17-25.78v-157.11h82.43c49.83 0 88.85-9.48 117.17-28.43 28.43-18.85 42.59-64.39 42.59-136.53V358h-175.25c-77.23 0-130.51 12.94-159.66 38.61-29.24 25.78-47.27 67.04-54.1 123.7l-23.23 195.83H5343.4l12.83-535.84h1718.36l12.94 535.84h-200.92l-20.69-195.83c-6.82-56.66-24.86-97.92-54.1-123.7-29.14-25.67-82.43-38.61-159.66-38.61h-175.25v1350.02c0 68.68 14.67 111.57 43.81 128.79 29.24 17.12 67.86 25.78 115.95 25.78h82.43v157.11H5714.37zm1256.7 0v-157.11h18.04c44.62 0 84.56-11.21 119.82-33.52 35.15-22.32 66.53-70.41 94.04-144.28L7751.64 180.3h466.35l525.54 1509.69c22.31 60.11 51.15 103.82 86.3 131.33 35.25 27.51 76.82 41.27 124.92 41.27h28.42v157.11H8029.9v-157.11h103.11c27.41 0 52.37-5.2 74.69-15.49 22.31-10.29 33.52-31.79 33.52-64.39 0-24.05-3.87-48.5-11.62-73.46-7.74-24.86-13.34-42.49-16.81-52.78l-79.78-234.45h-587.39l-59.3 185.44c-5.19 20.68-12.43 48.6-21.9 83.75-9.48 35.26-14.17 64.91-14.17 88.85 0 25.78 6.83 45.95 20.59 60.62 13.75 14.57 38.71 21.91 74.78 21.91h126.24v157.11h-700.79zm631.2-775.47h473.99L7929.44 752.2c-12.02-44.62-25.37-92.31-39.94-143.05-14.57-50.64-27-104.33-37.4-160.98-13.65 55.02-28.32 108.2-43.71 159.76-15.48 51.56-30.05 98.73-43.81 141.63l-162.31 494.67zm1449.98 775.47v-157.11h97.92c32.6 0 63.99-7.74 94.04-23.23 30.06-15.49 45.04-54.92 45.04-118.5V481.69c0-43-8.15-74.28-24.46-94.04-16.3-19.77-35.25-33.12-56.65-39.94-21.49-6.83-40.85-10.3-57.97-10.3h-97.92V180.3h930.05c192.36 0 345.2 20.18 458.6 60.52 113.3 40.35 194.5 97 243.41 170.06 48.91 72.95 73.46 158.43 73.46 256.25 0 97.91-16.81 178.61-50.23 242.19-33.52 63.58-77.74 113.4-132.76 149.47-54.92 36.07-115.85 63.47-182.89 82.43l293.74 497.21c46.36 78.97 86.3 136.13 119.72 171.28 33.53 35.25 71.73 52.88 114.73 52.88h18.04v157.11h-121.15c-149.37 0-275.61-14.57-378.72-43.81-103.01-29.14-178.61-91.9-226.7-188.09l-270.52-556.41H9804.5v489.47c0 63.58 11.62 103.01 34.85 118.5 23.12 15.49 53.59 23.23 91.39 23.23h61.85v157.11h-940.34zm752.25-958.36h115.95c99.65 0 172.6-30.06 218.96-90.18 46.36-60.11 69.59-151.1 69.59-273.06 0-123.69-24.86-212.13-74.69-265.42-49.82-53.19-122.87-79.78-219.06-79.78H9804.5v708.44zm1475.76 958.36v-157.11h82.43c49.82 0 88.84-9.48 117.17-28.43 28.43-18.85 42.59-64.39 42.59-136.53V358h-175.25c-77.23 0-130.52 12.94-159.66 38.61-29.24 25.78-47.28 67.04-54.1 123.7l-23.23 195.83h-200.93l12.84-535.84h1718.36l12.94 535.84h-200.93l-20.68-195.83c-6.83-56.66-24.86-97.92-54.11-123.7-29.14-25.67-82.42-38.61-159.66-38.61h-175.24v1350.02c0 68.68 14.67 111.57 43.81 128.79 29.24 17.12 67.86 25.78 115.95 25.78h82.42v157.11h-1004.72zm1771.95-613.17L12882.16 180.3h559.06l-170.05 1226.23h-218.96zm110.75 636.4c-66.94 0-123.69-17.22-170.05-51.55-46.36-34.34-69.49-96.19-69.49-185.54 0-90.99 23.13-153.24 69.49-186.77 46.36-33.52 103.11-50.23 170.05-50.23 65.31 0 121.96 16.71 170.05 50.23 48.1 33.53 72.14 95.78 72.14 186.77 0 89.35-24.04 151.2-72.14 185.54-48.09 34.33-104.74 51.55-170.05 51.55z" fill-rule="nonzero"/></symbol><symbol class="rsvg-inline--fa rfa-rss rfa-w-14" viewBox="0 0 448 512" id="rss-solid" xmlns="http://www.w3.org/2000/svg"><path d="M128.081 415.959c0 35.369-28.672 64.041-64.041 64.041S0 451.328 0 415.959s28.672-64.041 64.041-64.041 64.04 28.673 64.04 64.041zm175.66 47.25c-8.354-154.6-132.185-278.587-286.95-286.95C7.656 175.765 0 183.105 0 192.253v48.069c0 8.415 6.49 15.472 14.887 16.018 111.832 7.284 201.473 96.702 208.772 208.772.547 8.397 7.604 14.887 16.018 14.887h48.069c9.149.001 16.489-7.655 15.995-16.79zm144.249.288C439.596 229.677 251.465 40.445 16.503 32.01 7.473 31.686 0 38.981 0 48.016v48.068c0 8.625 6.835 15.645 15.453 15.999 191.179 7.839 344.627 161.316 352.465 352.465.353 8.618 7.373 15.453 15.999 15.453h48.068c9.034-.001 16.329-7.474 16.005-16.504z"/></symbol><symbol class="ssvg-inline--fa sfa-sign-out-alt sfa-w-16" viewBox="0 0 512 512" id="sign-out-alt-solid" xmlns="http://www.w3.org/2000/svg"><path d="M497 273L329 441c-15 15-41 4.5-41-17v-96H152c-13.3 0-24-10.7-24-24v-96c0-13.3 10.7-24 24-24h136V88c0-21.4 25.9-32 41-17l168 168c9.3 9.4 9.3 24.6 0 34zM192 436v-40c0-6.6-5.4-12-12-12H96c-17.7 0-32-14.3-32-32V160c0-17.7 14.3-32 32-32h84c6.6 0 12-5.4 12-12V76c0-6.6-5.4-12-12-12H96c-53 0-96 43-96 96v192c0 53 43 96 96 96h84c6.6 0 12-5.4 12-12z"/></symbol><symbol class="tsvg-inline--fa tfa-trash tfa-w-14" viewBox="0 0 448 512" id="trash-solid" xmlns="http://www.w3.org/2000/svg"><path d="M432 32H312l-9.4-18.7A24 24 0 00281.1 0H166.8a23.72 23.72 0 00-21.4 13.3L136 32H16A16 16 0 000 48v32a16 16 0 0016 16h416a16 16 0 0016-16V48a16 16 0 00-16-16zM53.2 467a48 48 0 0047.9 45h245.8a48 48 0 0047.9-45L416 128H32z"/></symbol><symbol class="usvg-inline--fa ufa-twitter ufa-w-16" viewBox="0 0 512 512" id="twitter-brands" xmlns="http://www.w3.org/2000/svg"><path d="M459.37 151.716c.325 4.548.325 9.097.325 13.645 0 138.72-105.583 298.558-298.558 298.558-59.452 0-114.68-17.219-161.137-47.106 8.447.974 16.568 1.299 25.34 1.299 49.055 0 94.213-16.568 130.274-44.832-46.132-.975-84.792-31.188-98.112-72.772 6.498.974 12.995 1.624 19.818 1.624 9.421 0 18.843-1.3 27.614-3.573-48.081-9.747-84.143-51.98-84.143-102.985v-1.299c13.969 7.797 30.214 12.67 47.431 13.319-28.264-18.843-46.781-51.005-46.781-87.391 0-19.492 5.197-37.36 14.294-52.954 51.655 63.675 129.3 105.258 216.365 109.807-1.624-7.797-2.599-15.918-2.599-24.04 0-57.828 46.782-104.934 104.934-104.934 30.213 0 57.502 12.67 76.67 33.137 23.715-4.548 46.456-13.32 66.599-25.34-7.798 24.366-24.366 44.833-46.132 57.827 21.117-2.273 41.584-8.122 60.426-16.243-14.292 20.791-32.161 39.308-52.628 54.253z"/></symbol><symbol class="vsvg-inline--fa vfa-user vfa-w-14" viewBox="0 0 448 512" id="user-solid" xmlns="http://www.w3.org/2000/svg"><path d="M224 256c70.7 0 128-57.3 128-128S294.7 0 224 0 96 57.3 96 128s57.3 128 128 128zm89.6 32h-16.7c-22.2 10.2-46.9 16-72.9 16s-50.6-5.8-72.9-16h-16.7C60.2 288 0 348.2 0 422.4V464c0 26.5 21.5 48 48 48h352c26.5 0 48-21.5 48-48v-41.6c0-74.2-60.2-134.4-134.4-134.4z"/></symbol></svg>